# xmcd
#
# Track frame offsets: 
#        150
#        9355
#        21870
#        28803
#        46130
#        54087
#        67557
#        82944
#        94749
#        104200
#        124523
#        134135
#        149124
#        158964
#        179518
#        200506
#        207817
#        221150
#
# Disc length: 3100 seconds
#
# Revision: 0
# Processed by: cddbd v1.5.2PL0 Copyright (c) Steve Scherf et al.
# Submitted via: ExactAudioCopy v1.0b4
#
DISCID=020c1a12
DTITLE=Whitetop Mountain Band - Island in the Sky
DYEAR=2012
DGENRE=Bluegrass
TTITLE0=Hensley's Dusty Miller
TTITLE1=Under an August Moon
TTITLE2=Uncle Eph's Got the Coon
TTITLE3=What's the Matter with the Mill
TTITLE4=Black Mountain Blues
TTITLE5=Russell County Queen
TTITLE6=Jesse James
TTITLE7=Distant Land to Roam
TTITLE8=Mississippi Sawyer
TTITLE9=Why Must it Be So
TTITLE10=Sourwood Mountain
TTITLE11=Maiden's Prayer
TTITLE12=Bill Cheatham
TTITLE13=Cabbage Head Song
TTITLE14=Henry Lee
TTITLE15=Bear Creek Hop
TTITLE16=Wabash Cannonball
TTITLE17=Ragtime Annie
EXTD=
EXTT0=
EXTT1=
EXTT2=
EXTT3=
EXTT4=
EXTT5=
EXTT6=
EXTT7=
EXTT8=
EXTT9=
EXTT10=
EXTT11=
EXTT12=
EXTT13=
EXTT14=
EXTT15=
EXTT16=
EXTT17=
PLAYORDER=
